<?xml version="1.0" encoding="utf-8" ?>
<svg baseProfile="tiny" height="100%" version="1.2" width="100%" xmlns="http://www.w3.org/2000/svg" xmlns:ev="http://www.w3.org/2001/xml-events" xmlns:xlink="http://www.w3.org/1999/xlink"><defs /><path d="M 100,776 Z" fill="black" stroke="none" /><path d="M 97,776 L 98,776 Z" fill="black" stroke="none" /><path d="M 94,776 Z" fill="black" stroke="none" /><path d="M 91,776 Z" fill="black" stroke="none" /><path d="M 84,776 L 88,776 Z" fill="black" stroke="none" /><path d="M 82,776 Z" fill="black" stroke="none" /><path d="M 80,776 Z" fill="black" stroke="none" /><path d="M 484,774 L 485,774 Z" fill="black" stroke="none" /><path d="M 193,774 L 191,776 L 103,776 L 192,776 L 192,775 Z" fill="black" stroke="none" /><path d="M 476,773 Z" fill="black" stroke="none" /><path d="M 478,772 L 479,772 Z" fill="black" stroke="none" /><path d="M 263,771 L 262,772 L 262,773 L 261,774 L 262,773 L 262,772 Z" fill="black" stroke="none" /><path d="M 83,770 Z" fill="black" stroke="none" /><path d="M 456,769 Z" fill="black" stroke="none" /><path d="M 264,769 Z" fill="black" stroke="none" /><path d="M 196,769 L 195,770 L 195,771 L 194,772 L 195,771 L 195,770 Z" fill="black" stroke="none" /><path d="M 475,768 L 476,768 Z" fill="black" stroke="none" /><path d="M 466,768 Z" fill="black" stroke="none" /><path d="M 86,765 Z" fill="black" stroke="none" /><path d="M 470,764 Z" fill="black" stroke="none" /><path d="M 267,764 L 266,765 L 266,766 L 265,767 L 266,766 L 266,765 Z" fill="black" stroke="none" /><path d="M 465,762 L 465,763 Z" fill="black" stroke="none" /><path d="M 200,762 L 199,763 L 199,764 L 198,765 L 198,766 L 197,767 L 198,766 L 198,765 L 199,764 L 199,763 Z" fill="black" stroke="none" /><path d="M 463,760 Z" fill="black" stroke="none" /><path d="M 89,760 Z" fill="black" stroke="none" /><path d="M 463,758 Z" fill="black" stroke="none" /><path d="M 90,758 Z" fill="black" stroke="none" /><path d="M 271,757 L 270,758 L 270,759 L 269,760 L 269,761 L 268,762 L 269,761 L 269,760 L 270,759 L 270,758 Z" fill="black" stroke="none" /><path d="M 460,756 Z" fill="black" stroke="none" /><path d="M 454,756 L 455,756 Z" fill="black" stroke="none" /><path d="M 458,755 Z" fill="black" stroke="none" /><path d="M 451,755 Z" fill="black" stroke="none" /><path d="M 204,755 L 203,756 L 203,757 L 202,758 L 202,759 L 201,760 L 202,759 L 202,758 L 203,757 L 203,756 Z" fill="black" stroke="none" /><path d="M 92,755 Z" fill="black" stroke="none" /><path d="M 93,753 Z" fill="black" stroke="none" /><path d="M 452,752 Z" fill="black" stroke="none" /><path d="M 449,752 Z" fill="black" stroke="none" /><path d="M 441,752 Z" fill="black" stroke="none" /><path d="M 455,751 Z" fill="black" stroke="none" /><path d="M 447,751 Z" fill="black" stroke="none" /><path d="M 95,750 L 94,751 Z" fill="black" stroke="none" /><path d="M 454,748 L 454,749 L 453,750 L 455,748 Z" fill="black" stroke="none" /><path d="M 96,748 Z" fill="black" stroke="none" /><path d="M 444,746 Z" fill="black" stroke="none" /><path d="M 97,746 Z" fill="black" stroke="none" /><path d="M 435,745 Z" fill="black" stroke="none" /><path d="M 448,744 L 448,745 L 447,746 L 447,747 L 448,746 L 449,746 L 448,745 Z" fill="black" stroke="none" /><path d="M 441,744 L 442,745 Z" fill="black" stroke="none" /><path d="M 99,743 L 98,744 Z" fill="black" stroke="none" /><path d="M 441,742 Z" fill="black" stroke="none" /><path d="M 438,742 L 437,743 Z" fill="black" stroke="none" /><path d="M 100,741 Z" fill="black" stroke="none" /><path d="M 443,740 Z" fill="black" stroke="none" /><path d="M 435,740 Z" fill="black" stroke="none" /><path d="M 433,740 Z" fill="black" stroke="none" /><path d="M 429,739 Z" fill="black" stroke="none" /><path d="M 102,738 L 101,739 Z" fill="black" stroke="none" /><path d="M 425,737 Z" fill="black" stroke="none" /><path d="M 423,736 Z" fill="black" stroke="none" /><path d="M 103,736 Z" fill="black" stroke="none" /><path d="M 432,735 Z" fill="black" stroke="none" /><path d="M 794,733 Z" fill="black" stroke="none" /><path d="M 105,733 L 104,734 Z" fill="black" stroke="none" /><path d="M 409,732 Z" fill="black" stroke="none" /><path d="M 422,731 L 422,732 L 423,732 Z" fill="black" stroke="none" /><path d="M 106,731 Z" fill="black" stroke="none" /><path d="M 426,729 L 425,730 L 426,731 L 426,733 L 427,734 L 426,733 Z" fill="black" stroke="none" /><path d="M 409,729 Z" fill="black" stroke="none" /><path d="M 407,728 Z" fill="black" stroke="none" /><path d="M 800,727 Z" fill="black" stroke="none" /><path d="M 802,726 L 802,727 Z" fill="black" stroke="none" /><path d="M 109,726 L 108,727 L 108,728 L 107,729 L 108,728 L 108,727 Z" fill="black" stroke="none" /><path d="M 800,725 Z" fill="black" stroke="none" /><path d="M 795,725 L 794,726 L 795,727 L 793,729 L 794,729 L 795,728 L 796,728 L 795,727 L 795,726 L 796,725 Z" fill="black" stroke="none" /><path d="M 110,724 Z" fill="black" stroke="none" /><path d="M 798,722 Z" fill="black" stroke="none" /><path d="M 397,721 Z" fill="black" stroke="none" /><path d="M 112,721 L 111,722 Z" fill="black" stroke="none" /><path d="M 798,720 L 799,720 Z" fill="black" stroke="none" /><path d="M 412,720 L 412,721 Z" fill="black" stroke="none" /><path d="M 401,720 Z" fill="black" stroke="none" /><path d="M 404,719 Z" fill="black" stroke="none" /><path d="M 113,719 Z" fill="black" stroke="none" /><path d="M 803,717 Z" fill="black" stroke="none" /><path d="M 398,716 Z" fill="black" stroke="none" /><path d="M 392,715 Z" fill="black" stroke="none" /><path d="M 796,714 Z" fill="black" stroke="none" /><path d="M 394,714 L 395,715 Z" fill="black" stroke="none" /><path d="M 116,714 L 115,715 L 115,716 L 114,717 L 115,716 L 115,715 Z" fill="black" stroke="none" /><path d="M 391,713 Z" fill="black" stroke="none" /><path d="M 796,711 L 796,712 L 797,712 Z" fill="black" stroke="none" /><path d="M 390,711 Z" fill="black" stroke="none" /><path d="M 379,711 Z" fill="black" stroke="none" /><path d="M 800,710 L 800,711 Z" fill="black" stroke="none" /><path d="M 394,710 L 393,711 L 393,712 L 393,711 Z" fill="black" stroke="none" /><path d="M 386,710 Z" fill="black" stroke="none" /><path d="M 383,709 Z" fill="black" stroke="none" /><path d="M 119,709 L 118,710 L 118,711 L 117,712 L 118,711 L 118,710 Z" fill="black" stroke="none" /><path d="M 387,708 Z" fill="black" stroke="none" /><path d="M 120,707 Z" fill="black" stroke="none" /><path d="M 374,705 Z" fill="black" stroke="none" /><path d="M 123,702 L 122,703 L 122,704 L 121,705 L 122,704 L 122,703 Z" fill="black" stroke="none" /><path d="M 795,701 Z" fill="black" stroke="none" /><path d="M 374,701 L 373,702 L 374,701 L 376,703 Z" fill="black" stroke="none" /><path d="M 791,699 L 791,700 L 792,700 Z" fill="black" stroke="none" /><path d="M 370,699 Z" fill="black" stroke="none" /><path d="M 359,699 Z" fill="black" stroke="none" /><path d="M 376,698 L 378,700 L 378,701 L 379,701 L 381,703 L 377,699 L 377,698 Z" fill="black" stroke="none" /><path d="M 374,698 L 373,699 Z" fill="black" stroke="none" /><path d="M 362,698 Z" fill="black" stroke="none" /><path d="M 371,697 Z" fill="black" stroke="none" /><path d="M 126,697 L 125,698 L 125,699 L 124,700 L 125,699 L 125,698 Z" fill="black" stroke="none" /><path d="M 357,696 Z" fill="black" stroke="none" /><path d="M 363,695 Z" fill="black" stroke="none" /><path d="M 795,694 Z" fill="black" stroke="none" /><path d="M 799,693 Z" fill="black" stroke="none" /><path d="M 793,691 Z" fill="black" stroke="none" /><path d="M 362,691 L 361,692 L 361,693 L 362,692 Z" fill="black" stroke="none" /><path d="M 357,690 Z" fill="black" stroke="none" /><path d="M 130,690 L 129,691 L 129,692 L 128,693 L 128,694 L 127,695 L 128,694 L 128,693 L 129,692 L 129,691 Z" fill="black" stroke="none" /><path d="M 367,689 L 365,691 L 365,692 L 364,693 L 365,694 L 364,693 L 365,692 L 365,691 L 366,690 L 367,690 L 368,691 L 367,690 Z" fill="black" stroke="none" /><path d="M 336,689 Z" fill="black" stroke="none" /><path d="M 347,688 Z" fill="black" stroke="none" /><path d="M 789,687 Z" fill="black" stroke="none" /><path d="M 785,687 L 786,687 Z" fill="black" stroke="none" /><path d="M 354,687 Z" fill="black" stroke="none" /><path d="M 322,686 Z" fill="black" stroke="none" /><path d="M 345,685 Z" fill="black" stroke="none" /><path d="M 343,685 Z" fill="black" stroke="none" /><path d="M 133,685 L 132,686 L 132,687 L 131,688 L 132,687 L 132,686 Z" fill="black" stroke="none" /><path d="M 786,684 Z" fill="black" stroke="none" /><path d="M 355,684 Z" fill="black" stroke="none" /><path d="M 350,684 L 349,685 L 349,686 L 349,685 Z" fill="black" stroke="none" /><path d="M 353,683 L 352,684 L 353,685 L 352,684 Z" fill="black" stroke="none" /><path d="M 789,682 Z" fill="black" stroke="none" /><path d="M 788,680 Z" fill="black" stroke="none" /><path d="M 351,680 L 352,680 Z" fill="black" stroke="none" /><path d="M 349,680 Z" fill="black" stroke="none" /><path d="M 345,680 Z" fill="black" stroke="none" /><path d="M 339,680 Z" fill="black" stroke="none" /><path d="M 337,680 Z" fill="black" stroke="none" /><path d="M 335,680 Z" fill="black" stroke="none" /><path d="M 332,680 Z" fill="black" stroke="none" /><path d="M 786,676 Z" fill="black" stroke="none" /><path d="M 789,674 L 788,675 Z" fill="black" stroke="none" /><path d="M 782,674 L 783,674 Z" fill="black" stroke="none" /><path d="M 785,673 L 786,673 Z" fill="black" stroke="none" /><path d="M 781,672 L 782,672 Z" fill="black" stroke="none" /><path d="M 785,670 L 784,671 L 785,671 Z" fill="black" stroke="none" /><path d="M 779,667 Z" fill="black" stroke="none" /><path d="M 247,665 Z" fill="black" stroke="none" /><path d="M 778,664 L 780,664 Z" fill="black" stroke="none" /><path d="M 780,662 Z" fill="black" stroke="none" /><path d="M 777,661 Z" fill="black" stroke="none" /><path d="M 775,660 Z" fill="black" stroke="none" /><path d="M 779,659 Z" fill="black" stroke="none" /><path d="M 878,657 L 876,659 L 876,660 L 874,662 L 876,660 L 876,659 Z" fill="black" stroke="none" /><path d="M 775,657 Z" fill="black" stroke="none" /><path d="M 257,656 Z" fill="black" stroke="none" /><path d="M 772,655 L 772,659 L 773,658 L 772,657 Z" fill="black" stroke="none" /><path d="M 770,655 L 770,656 Z" fill="black" stroke="none" /><path d="M 260,654 Z" fill="black" stroke="none" /><path d="M 772,652 L 773,653 Z" fill="black" stroke="none" /><path d="M 882,651 L 881,652 L 881,653 L 879,655 L 881,653 L 881,652 Z" fill="black" stroke="none" /><path d="M 257,651 L 258,651 Z" fill="black" stroke="none" /><path d="M 255,651 Z" fill="black" stroke="none" /><path d="M 249,651 Z" fill="black" stroke="none" /><path d="M 775,650 Z" fill="black" stroke="none" /><path d="M 240,650 Z" fill="black" stroke="none" /><path d="M 247,649 L 248,649 Z" fill="black" stroke="none" /><path d="M 237,649 Z" fill="black" stroke="none" /><path d="M 884,648 L 883,649 Z" fill="black" stroke="none" /><path d="M 771,648 Z" fill="black" stroke="none" /><path d="M 262,648 L 263,649 Z" fill="black" stroke="none" /><path d="M 257,648 L 256,649 L 255,649 L 256,649 Z" fill="black" stroke="none" /><path d="M 769,647 Z" fill="black" stroke="none" /><path d="M 238,647 Z" fill="black" stroke="none" /><path d="M 257,646 L 258,646 Z" fill="black" stroke="none" /><path d="M 236,646 Z" fill="black" stroke="none" /><path d="M 886,645 L 885,646 Z" fill="black" stroke="none" /><path d="M 249,645 Z" fill="black" stroke="none" /><path d="M 246,645 L 246,647 L 245,648 L 244,648 L 245,648 L 246,647 L 246,646 L 247,645 Z" fill="black" stroke="none" /><path d="M 769,644 Z" fill="black" stroke="none" /><path d="M 243,644 L 244,645 Z" fill="black" stroke="none" /><path d="M 235,644 Z" fill="black" stroke="none" /><path d="M 771,643 Z" fill="black" stroke="none" /><path d="M 240,643 L 241,644 Z" fill="black" stroke="none" /><path d="M 237,642 Z" fill="black" stroke="none" /><path d="M 767,641 L 767,642 L 768,641 Z" fill="black" stroke="none" /><path d="M 765,641 Z" fill="black" stroke="none" /><path d="M 235,641 Z" fill="black" stroke="none" /><path d="M 889,640 L 888,641 L 888,642 L 887,643 L 888,642 L 888,641 Z" fill="black" stroke="none" /><path d="M 223,640 Z" fill="black" stroke="none" /><path d="M 762,638 L 763,639 Z" fill="black" stroke="none" /><path d="M 234,638 L 234,639 L 235,639 Z" fill="black" stroke="none" /><path d="M 227,638 Z" fill="black" stroke="none" /><path d="M 891,637 L 890,638 Z" fill="black" stroke="none" /><path d="M 233,636 Z" fill="black" stroke="none" /><path d="M 230,636 L 230,637 Z" fill="black" stroke="none" /><path d="M 892,635 Z" fill="black" stroke="none" /><path d="M 236,635 L 235,636 Z" fill="black" stroke="none" /><path d="M 227,635 Z" fill="black" stroke="none" /><path d="M 893,633 Z" fill="black" stroke="none" /><path d="M 225,632 L 226,633 L 227,633 L 226,633 Z" fill="black" stroke="none" /><path d="M 223,629 L 224,629 L 225,630 L 224,629 Z" fill="black" stroke="none" /><path d="M 219,629 Z" fill="black" stroke="none" /><path d="M 896,628 L 895,629 L 895,630 L 894,631 L 895,630 L 895,629 Z" fill="black" stroke="none" /><path d="M 897,626 Z" fill="black" stroke="none" /><path d="M 207,626 Z" fill="black" stroke="none" /><path d="M 215,625 Z" fill="black" stroke="none" /><path d="M 898,624 Z" fill="black" stroke="none" /><path d="M 212,624 L 211,625 L 210,625 L 211,625 L 212,624 L 213,625 L 213,626 L 212,627 L 213,626 L 213,625 Z" fill="black" stroke="none" /><path d="M 899,622 Z" fill="black" stroke="none" /><path d="M 349,622 Z" fill="black" stroke="none" /><path d="M 208,622 L 209,622 Z" fill="black" stroke="none" /><path d="M 900,620 Z" fill="black" stroke="none" /><path d="M 208,620 Z" fill="black" stroke="none" /><path d="M 901,618 Z" fill="black" stroke="none" /><path d="M 209,618 Z" fill="black" stroke="none" /><path d="M 204,618 Z" fill="black" stroke="none" /><path d="M 198,618 Z" fill="black" stroke="none" /><path d="M 902,616 Z" fill="black" stroke="none" /><path d="M 207,616 L 206,617 Z" fill="black" stroke="none" /><path d="M 203,615 Z" fill="black" stroke="none" /><path d="M 903,614 Z" fill="black" stroke="none" /><path d="M 201,614 L 200,615 Z" fill="black" stroke="none" /><path d="M 206,613 L 205,614 Z" fill="black" stroke="none" /><path d="M 199,613 Z" fill="black" stroke="none" /><path d="M 904,612 Z" fill="black" stroke="none" /><path d="M 201,611 Z" fill="black" stroke="none" /><path d="M 198,611 Z" fill="black" stroke="none" /><path d="M 905,610 Z" fill="black" stroke="none" /><path d="M 196,609 L 197,609 Z" fill="black" stroke="none" /><path d="M 192,609 Z" fill="black" stroke="none" /><path d="M 906,608 Z" fill="black" stroke="none" /><path d="M 194,607 Z" fill="black" stroke="none" /><path d="M 190,606 Z" fill="black" stroke="none" /><path d="M 907,605 Z" fill="black" stroke="none" /><path d="M 193,605 Z" fill="black" stroke="none" /><path d="M 197,604 Z" fill="black" stroke="none" /><path d="M 908,603 Z" fill="black" stroke="none" /><path d="M 195,603 L 195,605 Z" fill="black" stroke="none" /><path d="M 192,603 Z" fill="black" stroke="none" /><path d="M 190,598 L 189,599 L 190,599 Z" fill="black" stroke="none" /><path d="M 911,596 Z" fill="black" stroke="none" /><path d="M 912,593 Z" fill="black" stroke="none" /><path d="M 916,582 Z" fill="black" stroke="none" /><path d="M 812,566 L 812,567 L 811,568 L 811,569 L 810,570 L 810,571 L 809,572 L 809,573 L 808,574 L 808,575 L 807,576 L 807,577 L 806,578 L 806,579 L 805,580 L 805,581 L 804,582 L 804,583 L 803,584 L 803,585 L 802,586 L 802,587 L 800,589 L 800,590 L 799,591 L 799,592 L 797,594 L 797,595 L 795,597 L 795,598 L 793,600 L 793,601 L 790,604 L 790,605 L 787,608 L 787,609 L 783,613 L 783,614 L 760,637 L 759,637 L 755,641 L 754,641 L 751,644 L 750,644 L 748,646 L 747,646 L 745,648 L 744,648 L 742,650 L 741,650 L 739,652 L 738,652 L 737,653 L 736,653 L 734,655 L 733,655 L 732,656 L 731,656 L 730,657 L 729,657 L 728,658 L 727,658 L 726,659 L 725,659 L 724,660 L 723,660 L 722,661 L 721,661 L 720,662 L 718,662 L 717,663 L 716,663 L 715,664 L 713,664 L 712,665 L 711,665 L 710,666 L 708,666 L 707,667 L 705,667 L 704,668 L 702,668 L 701,669 L 699,669 L 698,670 L 695,670 L 694,671 L 691,671 L 690,672 L 687,672 L 686,673 L 682,673 L 681,674 L 677,674 L 676,675 L 669,675 L 668,676 L 657,676 L 656,677 L 429,677 L 428,678 L 427,678 L 426,677 L 425,678 L 423,678 L 422,677 L 421,678 L 419,678 L 418,677 L 416,677 L 415,678 L 317,678 L 315,680 L 315,681 L 314,682 L 314,683 L 313,684 L 313,685 L 311,687 L 311,688 L 310,689 L 310,690 L 309,691 L 309,692 L 307,694 L 307,695 L 306,696 L 306,697 L 305,698 L 305,699 L 303,701 L 303,702 L 302,703 L 302,704 L 300,706 L 300,707 L 299,708 L 299,709 L 298,710 L 298,711 L 296,713 L 296,714 L 295,715 L 295,716 L 294,717 L 294,718 L 292,720 L 292,721 L 291,722 L 291,723 L 289,725 L 289,726 L 288,727 L 288,728 L 287,729 L 287,730 L 285,732 L 285,733 L 284,734 L 284,735 L 283,736 L 283,737 L 281,739 L 281,740 L 280,741 L 280,742 L 278,744 L 278,745 L 277,746 L 277,747 L 276,748 L 276,749 L 274,751 L 274,752 L 273,753 L 273,754 L 272,755 L 273,754 L 273,753 L 274,752 L 274,751 L 276,749 L 276,748 L 277,747 L 277,746 L 278,745 L 278,744 L 280,742 L 280,741 L 281,740 L 281,739 L 283,737 L 283,736 L 284,735 L 284,734 L 286,732 L 286,731 L 287,730 L 287,729 L 288,728 L 288,727 L 290,725 L 290,724 L 291,723 L 291,722 L 293,720 L 293,719 L 294,718 L 294,717 L 295,716 L 295,715 L 297,713 L 297,712 L 298,711 L 298,710 L 299,709 L 299,708 L 301,706 L 301,705 L 302,704 L 302,703 L 304,701 L 304,700 L 305,699 L 305,698 L 306,697 L 306,696 L 308,694 L 308,693 L 309,692 L 309,691 L 311,689 L 311,688 L 312,687 L 312,686 L 313,685 L 313,684 L 315,682 L 315,681 L 316,680 L 316,679 L 317,678 L 423,678 L 424,679 L 423,680 L 356,680 L 358,682 L 360,682 L 362,684 L 361,685 L 360,685 L 359,684 L 358,685 L 357,685 L 358,685 L 359,684 L 360,685 L 361,685 L 362,686 L 361,687 L 360,687 L 362,689 L 363,689 L 362,689 L 361,688 L 362,687 L 362,686 L 363,685 L 364,686 L 364,687 L 365,688 L 365,686 L 364,686 L 363,685 L 363,684 L 362,683 L 363,682 L 365,682 L 366,683 L 365,684 L 366,683 L 367,684 L 367,686 L 370,686 L 370,685 L 371,684 L 372,684 L 373,685 L 372,686 L 372,687 L 370,689 L 369,688 L 369,689 L 370,689 L 371,690 L 370,691 L 370,692 L 368,694 L 367,693 L 367,694 L 369,694 L 370,695 L 369,696 L 370,695 L 371,695 L 371,694 L 372,693 L 373,693 L 374,694 L 374,695 L 376,695 L 377,696 L 380,696 L 381,697 L 380,698 L 379,698 L 380,698 L 381,699 L 381,700 L 382,699 L 383,700 L 383,701 L 384,701 L 385,702 L 382,705 L 381,705 L 382,705 L 383,704 L 385,704 L 387,706 L 388,705 L 387,705 L 386,704 L 385,704 L 384,703 L 386,701 L 388,703 L 388,702 L 390,700 L 391,701 L 391,704 L 390,705 L 390,708 L 391,709 L 393,707 L 394,708 L 396,706 L 397,707 L 398,706 L 399,706 L 400,707 L 398,709 L 397,709 L 397,710 L 399,708 L 400,709 L 400,710 L 402,712 L 402,713 L 401,714 L 400,714 L 399,713 L 396,713 L 397,713 L 398,714 L 399,713 L 400,714 L 400,715 L 402,713 L 403,713 L 407,717 L 407,718 L 406,719 L 406,720 L 407,720 L 406,719 L 407,718 L 407,717 L 406,716 L 407,715 L 409,715 L 410,716 L 409,717 L 409,719 L 410,720 L 408,722 L 410,720 L 410,718 L 409,717 L 410,716 L 409,715 L 410,714 L 409,715 L 408,714 L 408,712 L 409,711 L 410,712 L 411,712 L 412,713 L 412,714 L 413,714 L 414,715 L 413,716 L 412,716 L 412,717 L 415,720 L 414,721 L 414,722 L 413,723 L 414,723 L 414,722 L 415,721 L 415,720 L 414,719 L 415,718 L 416,718 L 418,720 L 418,721 L 417,722 L 417,726 L 417,725 L 418,724 L 417,723 L 417,722 L 420,719 L 421,720 L 421,721 L 420,722 L 421,723 L 420,724 L 421,724 L 422,725 L 422,726 L 421,727 L 420,727 L 421,727 L 422,728 L 425,725 L 426,726 L 426,727 L 426,726 L 427,725 L 428,725 L 429,726 L 428,727 L 429,727 L 430,728 L 429,729 L 428,729 L 429,730 L 428,731 L 429,730 L 429,729 L 430,728 L 432,728 L 433,727 L 434,728 L 435,728 L 436,729 L 435,730 L 434,730 L 434,732 L 433,733 L 431,731 L 432,730 L 431,730 L 431,732 L 430,733 L 430,734 L 430,733 L 431,732 L 432,732 L 434,734 L 434,735 L 435,736 L 435,737 L 434,738 L 435,737 L 436,737 L 435,736 L 436,735 L 437,735 L 439,737 L 439,738 L 438,739 L 439,738 L 441,738 L 442,737 L 443,738 L 446,735 L 446,734 L 447,733 L 449,735 L 446,738 L 446,739 L 445,740 L 445,741 L 446,741 L 447,742 L 448,741 L 449,742 L 450,741 L 451,741 L 452,742 L 451,743 L 452,744 L 451,745 L 452,746 L 452,748 L 451,749 L 449,749 L 450,750 L 452,748 L 452,745 L 453,744 L 455,746 L 456,746 L 457,747 L 457,750 L 458,751 L 457,752 L 461,752 L 460,751 L 461,750 L 462,750 L 464,752 L 463,753 L 463,754 L 462,755 L 463,756 L 463,754 L 464,753 L 467,756 L 466,757 L 465,757 L 466,757 L 467,756 L 465,754 L 467,752 L 468,753 L 468,754 L 469,755 L 471,755 L 472,756 L 472,757 L 470,759 L 469,758 L 469,757 L 467,759 L 468,758 L 469,758 L 470,759 L 470,760 L 469,761 L 471,759 L 472,760 L 472,761 L 471,762 L 472,761 L 473,762 L 473,763 L 474,763 L 472,761 L 473,760 L 473,759 L 472,759 L 471,758 L 472,757 L 474,757 L 475,758 L 475,760 L 477,760 L 478,761 L 477,762 L 477,763 L 478,763 L 479,764 L 478,765 L 477,765 L 479,765 L 479,764 L 480,763 L 481,764 L 481,765 L 482,766 L 482,765 L 483,764 L 484,765 L 484,767 L 486,765 L 487,766 L 489,766 L 490,767 L 488,769 L 487,768 L 486,768 L 485,769 L 483,769 L 482,770 L 482,771 L 483,770 L 484,770 L 485,769 L 487,769 L 488,770 L 488,772 L 489,773 L 488,774 L 487,774 L 488,774 L 489,773 L 490,773 L 491,774 L 491,773 L 492,772 L 493,773 L 493,774 L 494,774 L 494,773 L 493,773 L 492,772 L 492,771 L 493,770 L 494,771 L 495,771 L 496,772 L 496,774 L 499,774 L 500,773 L 501,774 L 543,774 L 544,775 L 543,776 L 260,776 L 661,776 L 662,775 L 677,775 L 678,774 L 687,774 L 688,773 L 694,773 L 695,772 L 700,772 L 701,771 L 705,771 L 706,770 L 710,770 L 711,769 L 715,769 L 716,768 L 719,768 L 720,767 L 722,767 L 723,766 L 726,766 L 727,765 L 729,765 L 730,764 L 733,764 L 734,763 L 736,763 L 737,762 L 739,762 L 740,761 L 742,761 L 743,760 L 745,760 L 746,759 L 747,759 L 748,758 L 750,758 L 751,757 L 752,757 L 753,756 L 755,756 L 756,755 L 757,755 L 758,754 L 760,754 L 761,753 L 762,753 L 763,752 L 764,752 L 765,751 L 766,751 L 767,750 L 768,750 L 769,749 L 770,749 L 771,748 L 772,748 L 773,747 L 774,747 L 775,746 L 776,746 L 777,745 L 778,745 L 779,744 L 780,744 L 781,743 L 782,743 L 783,742 L 784,742 L 786,740 L 787,740 L 788,739 L 789,739 L 790,738 L 791,738 L 793,736 L 794,736 L 795,735 L 796,735 L 798,733 L 799,733 L 801,731 L 802,731 L 804,729 L 805,729 L 807,727 L 808,727 L 810,725 L 811,725 L 814,722 L 815,722 L 818,719 L 819,719 L 822,716 L 823,716 L 828,711 L 829,711 L 836,704 L 837,704 L 855,686 L 855,685 L 862,678 L 862,677 L 867,672 L 867,671 L 870,668 L 870,667 L 873,664 L 870,667 L 870,668 L 866,672 L 866,673 L 862,677 L 862,678 L 853,687 L 853,688 L 840,701 L 839,701 L 831,709 L 830,709 L 825,714 L 824,714 L 820,718 L 819,718 L 816,721 L 815,721 L 813,723 L 812,723 L 809,726 L 808,726 L 806,728 L 805,728 L 803,730 L 802,730 L 800,732 L 799,732 L 798,733 L 797,733 L 795,735 L 794,735 L 792,737 L 791,737 L 790,736 L 792,734 L 792,733 L 791,732 L 792,731 L 790,729 L 792,727 L 790,725 L 790,724 L 791,723 L 792,724 L 791,723 L 792,722 L 793,722 L 794,723 L 796,723 L 795,723 L 794,722 L 794,721 L 795,720 L 796,721 L 795,720 L 794,721 L 793,720 L 793,719 L 794,718 L 795,718 L 796,717 L 797,717 L 796,717 L 795,718 L 794,718 L 793,717 L 792,718 L 791,717 L 791,716 L 792,715 L 791,716 L 790,715 L 790,714 L 791,713 L 792,713 L 792,712 L 793,711 L 794,712 L 794,714 L 794,712 L 793,711 L 795,709 L 794,709 L 794,710 L 793,711 L 792,711 L 791,710 L 791,709 L 792,708 L 791,707 L 791,705 L 790,704 L 790,703 L 791,702 L 792,703 L 791,702 L 790,702 L 789,701 L 789,700 L 788,701 L 787,701 L 786,700 L 788,698 L 789,698 L 788,697 L 789,696 L 787,698 L 786,698 L 785,697 L 785,696 L 786,695 L 786,694 L 787,693 L 788,694 L 788,693 L 789,692 L 790,693 L 789,692 L 788,693 L 787,692 L 787,691 L 788,690 L 787,690 L 786,691 L 787,692 L 784,695 L 783,695 L 782,694 L 784,692 L 783,691 L 782,692 L 781,691 L 781,690 L 783,688 L 784,689 L 783,688 L 783,686 L 784,685 L 783,684 L 783,682 L 784,681 L 785,682 L 786,682 L 785,682 L 784,681 L 784,679 L 785,678 L 784,679 L 782,677 L 782,676 L 782,677 L 781,678 L 780,678 L 779,679 L 778,678 L 778,677 L 776,675 L 778,673 L 779,673 L 780,674 L 779,675 L 780,676 L 780,674 L 779,673 L 779,671 L 777,671 L 778,672 L 777,673 L 775,673 L 774,672 L 774,671 L 773,670 L 773,669 L 774,668 L 776,668 L 777,669 L 776,668 L 777,667 L 777,666 L 776,667 L 775,666 L 775,665 L 774,666 L 772,666 L 770,664 L 770,663 L 769,662 L 770,661 L 771,661 L 772,662 L 772,663 L 773,664 L 773,661 L 770,661 L 769,660 L 769,658 L 767,658 L 766,657 L 768,655 L 768,654 L 770,652 L 768,652 L 767,653 L 766,652 L 766,651 L 765,650 L 766,649 L 768,649 L 769,650 L 769,649 L 768,649 L 766,647 L 766,645 L 766,646 L 765,647 L 763,647 L 762,646 L 762,645 L 763,644 L 764,645 L 764,644 L 763,644 L 762,643 L 762,642 L 763,641 L 762,642 L 761,641 L 761,640 L 759,638 L 762,635 L 763,635 L 765,637 L 765,638 L 765,637 L 763,635 L 780,618 L 780,617 L 785,612 L 785,611 L 788,608 L 788,607 L 791,604 L 791,603 L 794,600 L 794,599 L 795,598 L 795,597 L 797,595 L 797,594 L 799,592 L 799,591 L 800,590 L 800,589 L 802,587 L 802,586 L 803,585 L 803,584 L 804,583 L 804,582 L 806,580 L 806,578 L 807,577 L 807,576 L 808,575 L 808,574 L 809,573 L 809,572 L 810,571 L 810,570 L 811,569 L 811,568 L 812,567 Z" fill="black" stroke="none" /><path d="M 819,546 L 819,548 L 818,549 L 818,551 L 817,552 L 817,554 L 816,555 L 816,557 L 815,558 L 815,559 L 814,560 L 814,562 L 813,563 L 813,564 L 813,563 L 814,562 L 814,560 L 815,559 L 815,558 L 816,557 L 816,555 L 817,554 L 817,552 L 818,551 L 818,549 L 819,548 Z" fill="black" stroke="none" /><path d="M 822,534 L 822,537 L 821,538 L 821,541 L 820,542 L 820,544 L 820,542 L 821,541 L 821,538 L 822,537 Z" fill="black" stroke="none" /><path d="M 823,530 L 823,532 Z" fill="black" stroke="none" /><path d="M 824,524 L 824,528 Z" fill="black" stroke="none" /><path d="M 825,518 L 825,522 Z" fill="black" stroke="none" /><path d="M 826,508 L 826,515 Z" fill="black" stroke="none" /><path d="M 665,483 L 665,484 Z" fill="black" stroke="none" /><path d="M 663,480 L 664,481 Z" fill="black" stroke="none" /><path d="M 827,478 L 827,504 Z" fill="black" stroke="none" /><path d="M 662,478 Z" fill="black" stroke="none" /><path d="M 659,473 L 660,474 L 660,475 L 661,476 L 660,475 L 660,474 Z" fill="black" stroke="none" /><path d="M 658,471 Z" fill="black" stroke="none" /><path d="M 826,469 L 826,474 Z" fill="black" stroke="none" /><path d="M 655,466 L 656,467 L 656,468 L 657,469 L 656,468 L 656,467 Z" fill="black" stroke="none" /><path d="M 654,464 Z" fill="black" stroke="none" /><path d="M 825,462 L 825,466 Z" fill="black" stroke="none" /><path d="M 650,457 L 651,458 L 651,459 L 652,460 L 652,461 L 653,462 L 652,461 L 652,460 L 651,459 L 651,458 Z" fill="black" stroke="none" /><path d="M 824,456 L 824,459 Z" fill="black" stroke="none" /><path d="M 823,452 L 823,454 Z" fill="black" stroke="none" /><path d="M 647,452 L 648,453 L 648,454 L 649,455 L 648,454 L 648,453 Z" fill="black" stroke="none" /><path d="M 646,450 Z" fill="black" stroke="none" /><path d="M 822,447 L 822,450 Z" fill="black" stroke="none" /><path d="M 643,445 L 644,446 L 644,447 L 645,448 L 644,447 L 644,446 Z" fill="black" stroke="none" /><path d="M 821,444 L 821,445 Z" fill="black" stroke="none" /><path d="M 642,443 Z" fill="black" stroke="none" /><path d="M 820,440 L 820,442 Z" fill="black" stroke="none" /><path d="M 639,438 L 640,439 L 640,440 L 641,441 L 640,440 L 640,439 Z" fill="black" stroke="none" /><path d="M 819,437 L 819,438 Z" fill="black" stroke="none" /><path d="M 638,436 Z" fill="black" stroke="none" /><path d="M 457,435 Z" fill="black" stroke="none" /><path d="M 818,434 L 818,435 Z" fill="black" stroke="none" /><path d="M 817,431 L 817,432 Z" fill="black" stroke="none" /><path d="M 635,431 L 636,432 L 636,433 L 637,434 L 636,433 L 636,432 Z" fill="black" stroke="none" /><path d="M 538,428 Z" fill="black" stroke="none" /><path d="M 526,427 Z" fill="black" stroke="none" /><path d="M 815,426 L 815,427 L 816,428 L 816,429 L 816,428 L 815,427 Z" fill="black" stroke="none" /><path d="M 631,424 L 632,425 L 632,426 L 633,427 L 633,428 L 634,429 L 633,428 L 633,427 L 632,426 L 632,425 Z" fill="black" stroke="none" /><path d="M 814,423 L 814,424 Z" fill="black" stroke="none" /><path d="M 525,423 Z" fill="black" stroke="none" /><path d="M 813,421 Z" fill="black" stroke="none" /><path d="M 523,419 Z" fill="black" stroke="none" /><path d="M 519,415 Z" fill="black" stroke="none" /><path d="M 523,414 Z" fill="black" stroke="none" /><path d="M 809,412 L 809,413 L 810,414 L 810,415 L 811,416 L 811,417 L 812,418 L 812,419 L 812,418 L 811,417 L 811,416 L 810,415 L 810,414 L 809,413 Z" fill="black" stroke="none" /><path d="M 624,412 L 625,413 L 625,414 L 626,415 L 626,416 L 628,418 L 628,419 L 629,420 L 629,421 L 630,422 L 629,421 L 629,420 L 628,419 L 628,418 L 626,416 L 626,415 L 625,414 L 625,413 Z" fill="black" stroke="none" /><path d="M 523,412 Z" fill="black" stroke="none" /><path d="M 620,405 L 621,406 L 621,407 L 622,408 L 622,409 L 623,410 L 622,409 L 622,408 L 621,407 L 621,406 Z" fill="black" stroke="none" /><path d="M 803,401 L 804,402 L 804,403 L 805,404 L 805,405 L 806,406 L 806,407 L 807,408 L 807,409 L 808,410 L 807,409 L 807,408 L 806,407 L 806,406 L 805,405 L 805,404 L 804,403 L 804,402 Z" fill="black" stroke="none" /><path d="M 510,400 Z" fill="black" stroke="none" /><path d="M 616,398 L 617,399 L 617,400 L 618,401 L 618,402 L 619,403 L 618,402 L 618,401 L 617,400 L 617,399 Z" fill="black" stroke="none" /><path d="M 512,398 L 513,399 Z" fill="black" stroke="none" /><path d="M 800,396 L 801,397 L 801,398 L 802,399 L 801,398 L 801,397 Z" fill="black" stroke="none" /><path d="M 527,395 Z" fill="black" stroke="none" /><path d="M 797,391 L 798,392 L 798,393 L 799,394 L 798,393 L 798,392 Z" fill="black" stroke="none" /><path d="M 612,391 L 613,392 L 613,393 L 614,394 L 614,395 L 615,396 L 614,395 L 614,394 L 613,393 L 613,392 Z" fill="black" stroke="none" /><path d="M 508,391 Z" fill="black" stroke="none" /><path d="M 515,390 Z" fill="black" stroke="none" /><path d="M 506,390 Z" fill="black" stroke="none" /><path d="M 502,386 Z" fill="black" stroke="none" /><path d="M 522,384 Z" fill="black" stroke="none" /><path d="M 513,382 Z" fill="black" stroke="none" /><path d="M 510,381 Z" fill="black" stroke="none" /><path d="M 502,380 Z" fill="black" stroke="none" /><path d="M 605,379 L 606,380 L 606,381 L 607,382 L 607,383 L 609,385 L 609,386 L 610,387 L 610,388 L 611,389 L 610,388 L 610,387 L 609,386 L 609,385 L 607,383 L 607,382 L 606,381 L 606,380 Z" fill="black" stroke="none" /><path d="M 498,379 Z" fill="black" stroke="none" /><path d="M 497,376 L 498,377 Z" fill="black" stroke="none" /><path d="M 500,373 Z" fill="black" stroke="none" /><path d="M 505,372 Z" fill="black" stroke="none" /><path d="M 494,372 Z" fill="black" stroke="none" /><path d="M 500,371 Z" fill="black" stroke="none" /><path d="M 492,369 Z" fill="black" stroke="none" /><path d="M 492,367 Z" fill="black" stroke="none" /><path d="M 494,365 Z" fill="black" stroke="none" /><path d="M 494,361 Z" fill="black" stroke="none" /><path d="M 488,359 L 488,360 L 487,361 L 488,360 Z" fill="black" stroke="none" /><path d="M 490,358 Z" fill="black" stroke="none" /><path d="M 491,351 Z" fill="black" stroke="none" /><path d="M 495,349 Z" fill="black" stroke="none" /><path d="M 490,349 Z" fill="black" stroke="none" /><path d="M 485,349 Z" fill="black" stroke="none" /><path d="M 479,344 L 479,345 Z" fill="black" stroke="none" /><path d="M 481,343 L 481,344 Z" fill="black" stroke="none" /><path d="M 474,337 Z" fill="black" stroke="none" /><path d="M 475,335 Z" fill="black" stroke="none" /><path d="M 473,331 Z" fill="black" stroke="none" /><path d="M 880,330 Z" fill="black" stroke="none" /><path d="M 877,326 Z" fill="black" stroke="none" /><path d="M 468,322 Z" fill="black" stroke="none" /><path d="M 872,319 Z" fill="black" stroke="none" /><path d="M 456,316 L 455,317 Z" fill="black" stroke="none" /><path d="M 451,316 Z" fill="black" stroke="none" /><path d="M 868,314 Z" fill="black" stroke="none" /><path d="M 453,314 Z" fill="black" stroke="none" /><path d="M 448,313 Z" fill="black" stroke="none" /><path d="M 451,312 Z" fill="black" stroke="none" /><path d="M 454,310 Z" fill="black" stroke="none" /><path d="M 446,310 L 446,311 Z" fill="black" stroke="none" /><path d="M 864,309 Z" fill="black" stroke="none" /><path d="M 456,308 Z" fill="black" stroke="none" /><path d="M 862,307 Z" fill="black" stroke="none" /><path d="M 445,307 Z" fill="black" stroke="none" /><path d="M 450,305 Z" fill="black" stroke="none" /><path d="M 440,305 Z" fill="black" stroke="none" /><path d="M 441,303 Z" fill="black" stroke="none" /><path d="M 439,303 Z" fill="black" stroke="none" /><path d="M 444,302 Z" fill="black" stroke="none" /><path d="M 440,301 Z" fill="black" stroke="none" /><path d="M 856,300 L 859,303 Z" fill="black" stroke="none" /><path d="M 444,300 Z" fill="black" stroke="none" /><path d="M 667,299 Z" fill="black" stroke="none" /><path d="M 664,299 L 665,299 Z" fill="black" stroke="none" /><path d="M 441,299 Z" fill="black" stroke="none" /><path d="M 436,298 L 436,299 Z" fill="black" stroke="none" /><path d="M 663,297 Z" fill="black" stroke="none" /><path d="M 659,297 Z" fill="black" stroke="none" /><path d="M 438,297 Z" fill="black" stroke="none" /><path d="M 665,296 Z" fill="black" stroke="none" /><path d="M 669,293 Z" fill="black" stroke="none" /><path d="M 440,293 Z" fill="black" stroke="none" /><path d="M 663,291 Z" fill="black" stroke="none" /><path d="M 434,291 Z" fill="black" stroke="none" /><path d="M 661,290 L 660,291 Z" fill="black" stroke="none" /><path d="M 430,290 Z" fill="black" stroke="none" /><path d="M 665,288 Z" fill="black" stroke="none" /><path d="M 658,288 L 658,289 Z" fill="black" stroke="none" /><path d="M 433,288 L 432,289 Z" fill="black" stroke="none" /><path d="M 430,288 Z" fill="black" stroke="none" /><path d="M 428,288 Z" fill="black" stroke="none" /><path d="M 655,285 L 656,286 L 657,286 L 658,285 L 657,286 L 656,286 Z" fill="black" stroke="none" /><path d="M 432,285 L 432,286 Z" fill="black" stroke="none" /><path d="M 428,285 Z" fill="black" stroke="none" /><path d="M 424,283 Z" fill="black" stroke="none" /><path d="M 658,280 Z" fill="black" stroke="none" /><path d="M 656,280 L 655,281 L 655,282 L 656,281 Z" fill="black" stroke="none" /><path d="M 834,278 L 842,286 Z" fill="black" stroke="none" /><path d="M 652,278 L 651,279 L 653,281 L 651,279 Z" fill="black" stroke="none" /><path d="M 648,278 L 649,278 Z" fill="black" stroke="none" /><path d="M 660,277 L 659,278 Z" fill="black" stroke="none" /><path d="M 425,277 Z" fill="black" stroke="none" /><path d="M 419,277 L 417,279 L 418,278 L 419,279 L 419,281 L 419,279 L 418,278 Z" fill="black" stroke="none" /><path d="M 415,277 Z" fill="black" stroke="none" /><path d="M 663,276 Z" fill="black" stroke="none" /><path d="M 653,276 Z" fill="black" stroke="none" /><path d="M 647,275 L 648,276 L 649,276 L 648,276 Z" fill="black" stroke="none" /><path d="M 420,274 Z" fill="black" stroke="none" /><path d="M 412,274 L 414,274 L 415,275 L 416,274 L 415,275 L 414,274 Z" fill="black" stroke="none" /><path d="M 828,273 L 831,276 Z" fill="black" stroke="none" /><path d="M 652,273 Z" fill="black" stroke="none" /><path d="M 649,271 L 648,272 Z" fill="black" stroke="none" /><path d="M 419,271 Z" fill="black" stroke="none" /><path d="M 412,271 L 413,272 L 414,271 L 413,272 Z" fill="black" stroke="none" /><path d="M 823,269 L 825,271 Z" fill="black" stroke="none" /><path d="M 417,269 Z" fill="black" stroke="none" /><path d="M 413,269 Z" fill="black" stroke="none" /><path d="M 643,267 L 644,268 L 644,269 L 644,268 Z" fill="black" stroke="none" /><path d="M 653,266 Z" fill="black" stroke="none" /><path d="M 818,265 L 820,267 Z" fill="black" stroke="none" /><path d="M 647,265 Z" fill="black" stroke="none" /><path d="M 640,264 L 641,265 L 640,266 L 639,266 L 640,266 L 642,264 Z" fill="black" stroke="none" /><path d="M 661,263 Z" fill="black" stroke="none" /><path d="M 644,263 L 645,264 Z" fill="black" stroke="none" /><path d="M 814,262 L 816,264 Z" fill="black" stroke="none" /><path d="M 649,262 L 650,263 Z" fill="black" stroke="none" /><path d="M 408,262 Z" fill="black" stroke="none" /><path d="M 643,261 L 642,262 Z" fill="black" stroke="none" /><path d="M 811,260 L 812,261 Z" fill="black" stroke="none" /><path d="M 639,260 L 639,262 Z" fill="black" stroke="none" /><path d="M 637,260 Z" fill="black" stroke="none" /><path d="M 409,260 Z" fill="black" stroke="none" /><path d="M 642,258 L 641,259 Z" fill="black" stroke="none" /><path d="M 638,258 Z" fill="black" stroke="none" /><path d="M 636,258 Z" fill="black" stroke="none" /><path d="M 409,258 Z" fill="black" stroke="none" /><path d="M 807,257 L 809,259 Z" fill="black" stroke="none" /><path d="M 403,256 Z" fill="black" stroke="none" /><path d="M 804,255 L 805,256 Z" fill="black" stroke="none" /><path d="M 638,255 Z" fill="black" stroke="none" /><path d="M 640,254 Z" fill="black" stroke="none" /><path d="M 636,253 Z" fill="black" stroke="none" /><path d="M 405,253 Z" fill="black" stroke="none" /><path d="M 391,252 L 391,253 Z" fill="black" stroke="none" /><path d="M 798,251 L 800,253 L 801,253 L 802,254 L 801,253 L 800,253 Z" fill="black" stroke="none" /><path d="M 636,251 L 637,251 Z" fill="black" stroke="none" /><path d="M 393,251 Z" fill="black" stroke="none" /><path d="M 642,250 Z" fill="black" stroke="none" /><path d="M 639,250 L 639,251 Z" fill="black" stroke="none" /><path d="M 630,250 Z" fill="black" stroke="none" /><path d="M 394,249 Z" fill="black" stroke="none" /><path d="M 793,248 L 794,249 L 795,249 L 796,250 L 795,249 L 794,249 Z" fill="black" stroke="none" /><path d="M 632,248 Z" fill="black" stroke="none" /><path d="M 636,246 Z" fill="black" stroke="none" /><path d="M 627,246 Z" fill="black" stroke="none" /><path d="M 788,245 L 789,246 L 790,246 L 791,247 L 790,246 L 789,246 Z" fill="black" stroke="none" /><path d="M 629,245 L 630,246 L 630,247 L 628,249 L 627,249 L 626,250 L 625,249 L 625,247 L 624,248 L 623,248 L 624,248 L 625,249 L 624,250 L 625,249 L 626,250 L 627,249 L 628,250 L 628,249 L 630,247 L 630,246 Z" fill="black" stroke="none" /><path d="M 642,244 Z" fill="black" stroke="none" /><path d="M 638,244 Z" fill="black" stroke="none" /><path d="M 634,244 L 634,245 Z" fill="black" stroke="none" /><path d="M 632,244 Z" fill="black" stroke="none" /><path d="M 629,243 Z" fill="black" stroke="none" /><path d="M 624,243 L 623,244 L 623,245 L 623,244 L 624,243 L 625,244 L 626,244 L 627,243 L 626,244 L 625,244 Z" fill="black" stroke="none" /><path d="M 634,242 Z" fill="black" stroke="none" /><path d="M 781,241 L 782,242 L 783,242 L 784,243 L 785,243 L 786,244 L 785,243 L 784,243 L 783,242 L 782,242 Z" fill="black" stroke="none" /><path d="M 632,241 Z" fill="black" stroke="none" /><path d="M 629,239 Z" fill="black" stroke="none" /><path d="M 626,239 L 627,240 L 626,241 L 625,241 L 626,241 L 627,240 Z" fill="black" stroke="none" /><path d="M 623,239 L 622,240 L 621,240 L 621,241 L 622,240 L 623,240 Z" fill="black" stroke="none" /><path d="M 633,237 Z" fill="black" stroke="none" /><path d="M 625,237 L 626,237 Z" fill="black" stroke="none" /><path d="M 623,237 Z" fill="black" stroke="none" /><path d="M 621,235 L 621,236 Z" fill="black" stroke="none" /><path d="M 625,234 Z" fill="black" stroke="none" /><path d="M 616,234 Z" fill="black" stroke="none" /><path d="M 626,232 Z" fill="black" stroke="none" /><path d="M 624,232 Z" fill="black" stroke="none" /><path d="M 628,230 Z" fill="black" stroke="none" /><path d="M 621,229 Z" fill="black" stroke="none" /><path d="M 627,228 Z" fill="black" stroke="none" /><path d="M 625,228 Z" fill="black" stroke="none" /><path d="M 619,228 Z" fill="black" stroke="none" /><path d="M 616,228 L 615,229 L 616,228 L 618,230 L 617,231 L 615,231 L 615,232 L 616,232 L 617,231 L 619,233 L 617,231 L 618,230 Z" fill="black" stroke="none" /><path d="M 621,227 Z" fill="black" stroke="none" /><path d="M 619,226 Z" fill="black" stroke="none" /><path d="M 627,225 Z" fill="black" stroke="none" /><path d="M 617,224 Z" fill="black" stroke="none" /><path d="M 626,223 Z" fill="black" stroke="none" /><path d="M 621,223 Z" fill="black" stroke="none" /><path d="M 616,222 L 617,222 Z" fill="black" stroke="none" /><path d="M 614,221 Z" fill="black" stroke="none" /><path d="M 618,220 Z" fill="black" stroke="none" /><path d="M 614,217 L 615,217 L 616,218 L 615,217 Z" fill="black" stroke="none" /><path d="M 611,217 Z" fill="black" stroke="none" /><path d="M 626,215 Z" fill="black" stroke="none" /><path d="M 623,214 Z" fill="black" stroke="none" /><path d="M 611,214 Z" fill="black" stroke="none" /><path d="M 618,212 Z" fill="black" stroke="none" /><path d="M 609,209 L 610,210 Z" fill="black" stroke="none" /><path d="M 601,208 L 601,209 L 602,209 Z" fill="black" stroke="none" /><path d="M 612,205 Z" fill="black" stroke="none" /><path d="M 599,205 L 599,209 L 598,210 L 597,209 L 597,210 L 599,210 L 600,211 L 601,211 L 600,211 L 599,210 L 599,206 L 600,205 L 601,205 Z" fill="black" stroke="none" /><path d="M 596,205 Z" fill="black" stroke="none" /><path d="M 616,204 Z" fill="black" stroke="none" /><path d="M 607,204 Z" fill="black" stroke="none" /><path d="M 561,202 L 563,204 L 563,205 L 564,206 L 564,207 L 566,209 L 566,210 L 567,211 L 567,212 L 568,213 L 568,214 L 570,216 L 570,217 L 571,218 L 571,219 L 573,221 L 573,222 L 574,223 L 574,224 L 575,225 L 575,226 L 577,228 L 577,229 L 578,230 L 578,231 L 580,233 L 580,234 L 581,235 L 581,236 L 582,237 L 582,238 L 584,240 L 584,241 L 585,242 L 585,243 L 586,244 L 586,245 L 588,247 L 588,248 L 589,249 L 589,250 L 591,252 L 591,253 L 592,254 L 592,255 L 593,256 L 593,257 L 595,259 L 595,260 L 596,261 L 596,262 L 597,263 L 597,264 L 599,266 L 599,267 L 600,268 L 600,269 L 602,271 L 602,272 L 603,273 L 603,274 L 604,275 L 604,276 L 606,278 L 606,279 L 607,280 L 607,281 L 609,283 L 609,284 L 610,285 L 610,286 L 611,287 L 611,288 L 613,290 L 613,291 L 614,292 L 614,293 L 616,295 L 616,296 L 617,297 L 617,298 L 618,299 L 618,300 L 645,300 L 646,301 L 654,301 L 655,302 L 660,302 L 661,303 L 666,303 L 667,304 L 671,304 L 672,305 L 676,305 L 677,306 L 680,306 L 681,307 L 683,307 L 684,308 L 687,308 L 688,309 L 690,309 L 691,310 L 693,310 L 694,311 L 696,311 L 697,312 L 699,312 L 700,313 L 702,313 L 703,314 L 704,314 L 705,315 L 707,315 L 708,316 L 709,316 L 710,317 L 711,317 L 712,318 L 714,318 L 715,319 L 716,319 L 717,320 L 718,320 L 719,321 L 720,321 L 721,322 L 722,322 L 724,324 L 725,324 L 726,325 L 727,325 L 728,326 L 729,326 L 730,327 L 731,327 L 733,329 L 734,329 L 736,331 L 737,331 L 739,333 L 740,333 L 742,335 L 743,335 L 745,337 L 746,337 L 749,340 L 750,340 L 753,343 L 754,343 L 759,348 L 760,348 L 781,369 L 781,370 L 786,375 L 786,376 L 789,379 L 789,380 L 792,383 L 792,384 L 794,386 L 794,387 L 796,389 L 794,387 L 794,386 L 792,384 L 792,383 L 789,380 L 789,379 L 786,376 L 786,375 L 781,370 L 781,369 L 760,348 L 759,348 L 754,343 L 753,343 L 749,339 L 748,339 L 746,337 L 745,337 L 742,334 L 741,334 L 739,332 L 738,332 L 736,330 L 735,330 L 734,329 L 733,329 L 731,327 L 730,327 L 729,326 L 728,326 L 726,324 L 725,324 L 724,323 L 723,323 L 722,322 L 721,322 L 720,321 L 719,321 L 718,320 L 717,320 L 716,319 L 715,319 L 714,318 L 713,318 L 712,317 L 710,317 L 709,316 L 708,316 L 707,315 L 706,315 L 705,314 L 703,314 L 702,313 L 701,313 L 700,312 L 698,312 L 697,311 L 695,311 L 694,310 L 692,310 L 691,309 L 689,309 L 688,308 L 686,308 L 685,307 L 682,307 L 681,306 L 678,306 L 677,305 L 674,305 L 673,304 L 669,304 L 668,303 L 663,303 L 662,302 L 657,302 L 656,301 L 657,300 L 658,300 L 659,299 L 660,300 L 659,299 L 658,300 L 657,300 L 655,298 L 656,297 L 655,296 L 655,294 L 656,293 L 658,295 L 656,293 L 656,292 L 655,293 L 654,292 L 655,293 L 654,294 L 652,294 L 651,293 L 651,297 L 650,298 L 649,297 L 649,296 L 648,295 L 649,294 L 649,293 L 648,293 L 647,292 L 648,291 L 651,291 L 652,290 L 653,290 L 654,289 L 655,289 L 654,288 L 654,287 L 653,286 L 653,285 L 653,286 L 654,287 L 654,288 L 652,290 L 651,289 L 651,288 L 650,288 L 649,287 L 650,286 L 650,285 L 649,284 L 650,283 L 648,281 L 648,280 L 647,280 L 645,278 L 645,277 L 644,278 L 642,276 L 644,274 L 644,273 L 645,272 L 644,273 L 644,274 L 643,275 L 640,275 L 639,274 L 638,274 L 637,275 L 636,274 L 636,273 L 638,271 L 639,271 L 641,273 L 642,273 L 641,272 L 642,271 L 642,270 L 641,269 L 641,268 L 640,268 L 639,269 L 638,269 L 637,270 L 635,270 L 634,269 L 635,268 L 636,268 L 636,264 L 637,263 L 636,263 L 635,264 L 634,263 L 634,262 L 635,261 L 635,260 L 634,259 L 634,258 L 631,258 L 628,255 L 629,254 L 630,254 L 632,252 L 633,253 L 633,254 L 632,255 L 632,256 L 633,256 L 632,255 L 633,254 L 634,254 L 636,256 L 636,255 L 635,255 L 633,253 L 633,252 L 631,252 L 631,253 L 630,254 L 628,254 L 627,253 L 628,252 L 629,252 L 627,252 L 626,253 L 625,252 L 624,253 L 623,253 L 622,252 L 619,252 L 618,251 L 618,250 L 619,249 L 620,250 L 622,250 L 619,247 L 620,246 L 620,245 L 621,244 L 621,243 L 620,243 L 619,242 L 619,241 L 618,242 L 617,241 L 617,240 L 616,239 L 617,238 L 618,238 L 619,239 L 620,238 L 621,238 L 620,238 L 618,236 L 619,237 L 618,238 L 617,238 L 616,239 L 615,238 L 615,236 L 614,235 L 614,234 L 613,235 L 612,234 L 611,234 L 610,233 L 611,232 L 613,232 L 612,232 L 611,231 L 612,230 L 613,230 L 611,228 L 611,227 L 612,226 L 613,226 L 614,227 L 614,226 L 612,224 L 612,222 L 612,224 L 613,225 L 611,227 L 610,227 L 609,226 L 609,224 L 610,223 L 609,222 L 612,219 L 610,221 L 609,221 L 608,222 L 606,222 L 605,221 L 606,220 L 607,220 L 606,219 L 607,218 L 608,218 L 609,219 L 608,218 L 606,218 L 606,220 L 605,221 L 604,220 L 603,220 L 602,221 L 600,219 L 601,218 L 602,218 L 603,217 L 604,218 L 603,217 L 604,216 L 606,216 L 607,215 L 607,213 L 608,212 L 607,212 L 607,215 L 606,216 L 604,214 L 603,214 L 602,213 L 603,212 L 603,211 L 603,212 L 602,213 L 602,215 L 601,216 L 602,217 L 601,218 L 600,218 L 599,217 L 599,216 L 598,216 L 597,217 L 596,216 L 596,215 L 598,213 L 599,214 L 600,214 L 598,212 L 598,213 L 597,214 L 594,211 L 595,210 L 594,209 L 595,208 L 594,207 L 594,206 L 593,205 L 592,205 L 593,206 L 592,207 L 591,207 L 590,206 L 590,208 L 589,209 L 588,209 L 586,207 L 587,206 L 588,206 L 586,206 L 585,205 L 584,205 L 583,206 L 580,206 L 579,207 L 578,206 L 578,205 L 580,203 L 581,203 L 582,204 L 584,202 L 585,203 L 587,203 L 588,202 L 590,202 L 591,203 L 592,202 L 593,202 L 594,203 L 595,202 L 628,202 L 629,203 L 651,203 L 652,204 L 664,204 L 665,205 L 672,205 L 673,206 L 679,206 L 680,207 L 686,207 L 687,208 L 692,208 L 693,209 L 696,209 L 697,210 L 701,210 L 702,211 L 705,211 L 706,212 L 709,212 L 710,213 L 713,213 L 714,214 L 717,214 L 718,215 L 720,215 L 721,216 L 723,216 L 724,217 L 726,217 L 727,218 L 730,218 L 731,219 L 732,219 L 733,220 L 735,220 L 736,221 L 738,221 L 739,222 L 741,222 L 742,223 L 743,223 L 744,224 L 746,224 L 747,225 L 748,225 L 749,226 L 751,226 L 752,227 L 753,227 L 754,228 L 755,228 L 756,229 L 757,229 L 758,230 L 760,230 L 761,231 L 762,231 L 763,232 L 764,232 L 765,233 L 766,233 L 767,234 L 768,234 L 769,235 L 770,235 L 771,236 L 772,236 L 773,237 L 774,237 L 775,238 L 776,238 L 777,239 L 778,239 L 779,240 L 778,239 L 777,239 L 776,238 L 775,238 L 774,237 L 773,237 L 772,236 L 771,236 L 770,235 L 769,235 L 768,234 L 767,234 L 766,233 L 765,233 L 764,232 L 763,232 L 762,231 L 761,231 L 760,230 L 758,230 L 757,229 L 756,229 L 755,228 L 754,228 L 753,227 L 752,227 L 751,226 L 749,226 L 748,225 L 747,225 L 746,224 L 744,224 L 743,223 L 742,223 L 741,222 L 739,222 L 738,221 L 736,221 L 735,220 L 733,220 L 732,219 L 731,219 L 730,218 L 728,218 L 727,217 L 724,217 L 723,216 L 721,216 L 720,215 L 718,215 L 717,214 L 714,214 L 713,213 L 710,213 L 709,212 L 706,212 L 705,211 L 702,211 L 701,210 L 698,210 L 697,209 L 693,209 L 692,208 L 687,208 L 686,207 L 681,207 L 680,206 L 674,206 L 673,205 L 666,205 L 665,204 L 655,204 L 654,203 L 638,203 L 637,202 Z" fill="black" stroke="none" /><path d="M 442,202 L 441,203 L 436,203 L 435,204 L 432,204 L 431,205 L 429,205 L 428,206 L 427,206 L 426,207 L 424,207 L 423,208 L 422,208 L 420,210 L 419,210 L 418,211 L 417,211 L 415,213 L 414,213 L 404,223 L 404,224 L 403,225 L 403,226 L 401,228 L 401,229 L 400,230 L 400,231 L 398,233 L 398,234 L 397,235 L 397,236 L 395,238 L 395,239 L 394,240 L 394,241 L 393,242 L 393,243 L 391,245 L 391,246 L 390,247 L 390,248 L 388,250 L 388,251 L 387,252 L 387,253 L 385,255 L 385,256 L 384,257 L 384,258 L 383,259 L 383,260 L 381,262 L 381,263 L 380,264 L 380,265 L 378,267 L 378,268 L 377,269 L 377,270 L 375,272 L 375,273 L 374,274 L 374,275 L 372,277 L 372,278 L 371,279 L 371,280 L 370,281 L 370,282 L 368,284 L 368,285 L 367,286 L 367,287 L 365,289 L 365,290 L 364,291 L 364,292 L 362,294 L 362,295 L 361,296 L 361,297 L 359,299 L 359,300 L 358,301 L 358,302 L 357,303 L 357,304 L 355,306 L 355,307 L 354,308 L 354,309 L 352,311 L 352,312 L 351,313 L 351,314 L 349,316 L 349,317 L 348,318 L 348,319 L 346,321 L 346,322 L 345,323 L 345,324 L 344,325 L 344,326 L 342,328 L 342,329 L 341,330 L 341,331 L 339,333 L 339,334 L 338,335 L 338,336 L 336,338 L 336,339 L 335,340 L 335,341 L 334,342 L 334,343 L 332,345 L 332,346 L 331,347 L 331,348 L 329,350 L 329,351 L 328,352 L 328,353 L 326,355 L 326,356 L 325,357 L 325,358 L 324,359 L 324,360 L 322,362 L 322,363 L 321,364 L 321,365 L 319,367 L 319,368 L 318,369 L 318,370 L 316,372 L 316,373 L 315,374 L 315,375 L 314,376 L 314,377 L 312,379 L 312,380 L 311,381 L 311,382 L 309,384 L 309,385 L 308,386 L 308,387 L 306,389 L 306,390 L 305,391 L 305,392 L 304,393 L 304,394 L 302,396 L 302,397 L 301,398 L 301,399 L 299,401 L 299,402 L 298,403 L 298,404 L 296,406 L 296,407 L 295,408 L 295,409 L 293,411 L 293,412 L 292,413 L 292,414 L 291,415 L 291,416 L 289,418 L 289,419 L 288,420 L 288,421 L 286,423 L 286,424 L 285,425 L 285,426 L 283,428 L 283,429 L 282,430 L 282,431 L 281,432 L 281,433 L 279,435 L 279,436 L 278,437 L 278,438 L 276,440 L 276,441 L 275,442 L 275,443 L 274,444 L 274,445 L 272,447 L 272,448 L 271,449 L 271,450 L 269,452 L 269,453 L 268,454 L 268,455 L 266,457 L 266,458 L 265,459 L 265,460 L 264,461 L 264,462 L 262,464 L 262,465 L 261,466 L 261,467 L 259,469 L 259,470 L 258,471 L 258,472 L 256,474 L 256,475 L 255,476 L 255,477 L 254,478 L 254,479 L 252,481 L 252,482 L 251,483 L 251,484 L 249,486 L 249,487 L 248,488 L 248,489 L 246,491 L 246,492 L 245,493 L 245,494 L 244,495 L 244,496 L 242,498 L 242,499 L 241,500 L 241,501 L 239,503 L 239,504 L 238,505 L 238,506 L 237,507 L 237,508 L 235,510 L 235,511 L 234,512 L 234,513 L 232,515 L 232,516 L 231,517 L 231,518 L 230,519 L 230,520 L 228,522 L 228,523 L 227,524 L 227,525 L 225,527 L 225,528 L 224,529 L 224,530 L 223,531 L 223,532 L 221,534 L 221,535 L 220,536 L 220,537 L 218,539 L 218,540 L 217,541 L 217,542 L 216,543 L 216,544 L 214,546 L 214,547 L 213,548 L 213,549 L 211,551 L 211,552 L 210,553 L 210,554 L 208,556 L 208,557 L 207,558 L 207,559 L 206,560 L 206,561 L 204,563 L 204,564 L 203,565 L 203,566 L 201,568 L 201,569 L 200,570 L 200,571 L 198,573 L 198,574 L 197,575 L 197,576 L 196,577 L 196,578 L 194,580 L 194,581 L 193,582 L 193,583 L 191,585 L 191,586 L 190,587 L 190,588 L 188,590 L 188,591 L 187,592 L 187,593 L 186,594 L 186,595 L 184,597 L 184,598 L 183,599 L 183,600 L 182,601 L 182,602 L 180,604 L 180,605 L 179,606 L 179,607 L 177,609 L 177,610 L 176,611 L 176,612 L 175,613 L 175,614 L 173,616 L 173,617 L 172,618 L 172,619 L 170,621 L 170,622 L 169,623 L 169,624 L 168,625 L 168,626 L 166,628 L 166,629 L 165,630 L 165,631 L 163,633 L 163,634 L 162,635 L 162,636 L 160,638 L 160,639 L 159,640 L 159,641 L 157,643 L 157,644 L 156,645 L 156,646 L 155,647 L 155,648 L 153,650 L 153,651 L 152,652 L 152,653 L 150,655 L 150,656 L 149,657 L 149,658 L 148,659 L 148,660 L 146,662 L 146,663 L 145,664 L 145,665 L 143,667 L 143,668 L 142,669 L 142,670 L 141,671 L 141,672 L 139,674 L 139,675 L 138,676 L 138,677 L 136,679 L 136,680 L 135,681 L 135,682 L 134,683 L 135,682 L 135,681 L 136,680 L 136,679 L 138,677 L 138,676 L 139,675 L 139,674 L 141,672 L 141,671 L 142,670 L 142,669 L 143,668 L 143,667 L 145,665 L 145,664 L 146,663 L 146,662 L 148,660 L 148,659 L 149,658 L 149,657 L 151,655 L 151,654 L 152,653 L 152,652 L 154,650 L 154,649 L 155,648 L 155,647 L 156,646 L 156,645 L 158,643 L 158,642 L 159,641 L 159,640 L 161,638 L 161,637 L 162,636 L 162,635 L 164,633 L 164,632 L 165,631 L 165,630 L 167,628 L 167,627 L 168,626 L 168,625 L 169,624 L 169,623 L 171,621 L 171,620 L 172,619 L 172,618 L 174,616 L 174,615 L 175,614 L 175,613 L 177,611 L 177,610 L 178,609 L 178,608 L 180,606 L 180,605 L 181,604 L 181,603 L 182,602 L 182,601 L 184,599 L 184,598 L 185,597 L 185,596 L 187,594 L 187,593 L 188,592 L 189,593 L 189,594 L 190,595 L 190,596 L 190,595 L 191,594 L 194,597 L 193,598 L 194,599 L 194,600 L 193,601 L 192,601 L 193,601 L 194,600 L 195,601 L 195,600 L 196,599 L 200,603 L 200,604 L 201,605 L 200,606 L 201,605 L 202,606 L 202,607 L 200,609 L 198,607 L 200,609 L 201,608 L 202,608 L 203,609 L 202,608 L 203,607 L 204,607 L 205,608 L 205,611 L 206,610 L 207,610 L 208,609 L 209,610 L 209,612 L 208,613 L 208,614 L 212,618 L 212,619 L 211,620 L 211,621 L 212,620 L 212,618 L 213,617 L 214,617 L 215,618 L 214,619 L 214,621 L 215,621 L 216,622 L 217,621 L 216,622 L 214,620 L 215,619 L 217,619 L 217,618 L 218,617 L 219,618 L 219,619 L 220,620 L 219,621 L 219,623 L 220,624 L 219,625 L 220,624 L 220,623 L 219,622 L 219,621 L 220,620 L 221,621 L 221,620 L 222,619 L 223,619 L 224,620 L 223,621 L 223,622 L 222,623 L 223,623 L 224,624 L 222,626 L 221,626 L 221,627 L 222,627 L 222,626 L 224,624 L 225,625 L 225,627 L 225,626 L 226,625 L 227,626 L 228,625 L 229,626 L 229,627 L 228,628 L 228,631 L 229,632 L 231,632 L 232,631 L 234,633 L 233,634 L 232,634 L 234,634 L 235,633 L 236,633 L 237,632 L 238,632 L 239,633 L 238,634 L 238,635 L 239,636 L 240,635 L 241,635 L 242,636 L 240,638 L 237,638 L 237,640 L 238,640 L 239,641 L 241,641 L 239,641 L 238,640 L 238,639 L 239,638 L 240,639 L 241,638 L 243,638 L 245,640 L 243,642 L 244,642 L 245,643 L 246,642 L 247,642 L 247,641 L 248,640 L 249,641 L 249,643 L 249,641 L 250,640 L 251,640 L 252,641 L 251,642 L 252,643 L 251,644 L 252,643 L 253,643 L 254,644 L 254,645 L 253,646 L 251,646 L 251,647 L 250,648 L 252,646 L 253,646 L 254,647 L 255,647 L 255,645 L 257,643 L 258,643 L 260,645 L 260,647 L 263,644 L 265,646 L 264,647 L 265,646 L 266,647 L 266,648 L 265,649 L 265,650 L 264,651 L 264,652 L 262,654 L 262,655 L 261,656 L 261,657 L 259,659 L 259,660 L 258,661 L 258,662 L 257,663 L 257,664 L 255,666 L 255,667 L 254,668 L 254,669 L 253,670 L 253,671 L 251,673 L 251,674 L 250,675 L 250,676 L 249,677 L 249,678 L 247,680 L 247,681 L 246,682 L 246,683 L 245,684 L 245,685 L 243,687 L 243,688 L 242,689 L 242,690 L 240,692 L 240,693 L 239,694 L 239,695 L 238,696 L 238,697 L 236,699 L 236,700 L 235,701 L 235,702 L 234,703 L 234,704 L 232,706 L 232,707 L 231,708 L 231,709 L 229,711 L 229,712 L 228,713 L 228,714 L 227,715 L 227,716 L 225,718 L 225,719 L 224,720 L 224,721 L 223,722 L 223,723 L 221,725 L 221,726 L 220,727 L 220,728 L 218,730 L 218,731 L 217,732 L 217,733 L 215,735 L 215,736 L 214,737 L 214,738 L 213,739 L 213,740 L 211,742 L 211,743 L 210,744 L 210,745 L 209,746 L 209,747 L 207,749 L 207,750 L 206,751 L 206,752 L 205,753 L 206,752 L 206,751 L 207,750 L 207,749 L 209,747 L 209,746 L 210,745 L 210,744 L 211,743 L 211,742 L 213,740 L 213,739 L 214,738 L 214,737 L 216,735 L 216,734 L 217,733 L 217,732 L 218,731 L 218,730 L 220,728 L 220,727 L 221,726 L 221,725 L 223,723 L 223,722 L 224,721 L 224,720 L 226,718 L 226,717 L 227,716 L 227,715 L 228,714 L 228,713 L 230,711 L 230,710 L 231,709 L 231,708 L 233,706 L 233,705 L 234,704 L 234,703 L 235,702 L 235,701 L 237,699 L 237,698 L 238,697 L 238,696 L 240,694 L 240,693 L 241,692 L 241,691 L 242,690 L 242,689 L 244,687 L 244,686 L 245,685 L 245,684 L 247,682 L 247,681 L 248,680 L 248,679 L 249,678 L 249,677 L 251,675 L 251,674 L 252,673 L 252,672 L 254,670 L 254,669 L 255,668 L 255,667 L 256,666 L 256,665 L 258,663 L 258,662 L 259,661 L 259,660 L 260,659 L 260,658 L 262,656 L 262,655 L 263,654 L 263,653 L 265,651 L 265,650 L 266,649 L 266,648 L 267,647 L 267,646 L 269,644 L 269,643 L 270,642 L 270,641 L 271,640 L 271,639 L 273,637 L 273,636 L 274,635 L 274,634 L 276,632 L 276,631 L 277,630 L 277,629 L 279,627 L 279,626 L 280,625 L 280,624 L 281,623 L 281,622 L 283,620 L 283,619 L 284,618 L 284,617 L 286,615 L 286,614 L 287,613 L 287,612 L 288,611 L 288,610 L 290,608 L 290,607 L 291,606 L 291,605 L 293,603 L 293,602 L 294,601 L 294,600 L 295,599 L 295,598 L 297,596 L 297,595 L 298,594 L 298,593 L 299,592 L 299,591 L 301,589 L 301,588 L 302,587 L 302,586 L 304,584 L 304,583 L 305,582 L 305,581 L 306,580 L 306,579 L 308,577 L 308,576 L 309,575 L 309,574 L 311,572 L 311,571 L 312,570 L 312,569 L 313,568 L 313,567 L 315,565 L 315,564 L 316,563 L 316,562 L 318,560 L 318,559 L 319,558 L 319,557 L 320,556 L 320,555 L 322,553 L 322,552 L 323,551 L 323,550 L 324,549 L 324,548 L 326,546 L 326,545 L 327,544 L 327,543 L 329,541 L 329,540 L 330,539 L 330,538 L 331,537 L 331,536 L 333,534 L 333,533 L 334,532 L 334,531 L 336,529 L 336,528 L 337,527 L 337,526 L 338,525 L 338,524 L 340,522 L 340,521 L 341,520 L 341,519 L 343,517 L 343,516 L 344,515 L 344,514 L 345,513 L 345,512 L 347,510 L 347,509 L 348,508 L 348,507 L 349,506 L 349,505 L 351,503 L 351,502 L 352,501 L 352,500 L 354,498 L 354,497 L 355,496 L 355,495 L 356,494 L 356,493 L 358,491 L 358,490 L 359,489 L 359,488 L 361,486 L 361,485 L 362,484 L 362,483 L 363,482 L 363,481 L 365,479 L 365,478 L 366,477 L 366,476 L 368,474 L 368,473 L 369,472 L 369,471 L 370,470 L 370,469 L 372,467 L 372,466 L 373,465 L 373,464 L 374,463 L 374,462 L 376,460 L 376,459 L 377,458 L 377,457 L 379,455 L 379,454 L 380,453 L 380,452 L 381,451 L 381,450 L 383,448 L 383,447 L 384,446 L 384,445 L 385,444 L 385,443 L 387,441 L 387,440 L 388,439 L 388,438 L 390,436 L 390,435 L 391,434 L 391,433 L 392,432 L 392,431 L 394,429 L 394,428 L 395,427 L 395,426 L 397,424 L 397,423 L 398,422 L 398,421 L 399,420 L 399,419 L 401,417 L 401,416 L 402,415 L 402,414 L 403,413 L 403,412 L 405,410 L 405,409 L 406,408 L 406,407 L 407,406 L 407,405 L 409,403 L 409,402 L 410,401 L 410,400 L 412,398 L 412,397 L 413,396 L 413,395 L 414,394 L 414,393 L 416,391 L 416,390 L 417,389 L 417,388 L 419,386 L 419,385 L 420,384 L 420,383 L 422,381 L 422,380 L 423,379 L 423,378 L 424,377 L 424,376 L 426,374 L 426,373 L 427,372 L 427,371 L 428,370 L 428,369 L 430,367 L 430,366 L 431,365 L 431,364 L 433,362 L 433,361 L 434,360 L 434,359 L 435,358 L 435,357 L 437,355 L 437,354 L 438,353 L 438,352 L 440,350 L 440,349 L 441,348 L 441,347 L 442,346 L 442,345 L 444,343 L 444,342 L 445,341 L 445,340 L 447,338 L 447,337 L 448,336 L 448,335 L 449,334 L 449,333 L 451,331 L 451,330 L 452,329 L 452,328 L 453,327 L 453,326 L 455,324 L 455,323 L 456,322 L 456,321 L 457,320 L 457,319 L 458,318 L 459,318 L 460,319 L 460,320 L 461,321 L 461,322 L 463,324 L 463,325 L 464,326 L 464,327 L 465,328 L 465,329 L 467,331 L 467,332 L 468,333 L 468,334 L 470,336 L 470,337 L 471,338 L 471,339 L 473,341 L 473,342 L 474,343 L 474,344 L 476,346 L 476,347 L 477,348 L 477,349 L 478,350 L 478,351 L 480,353 L 480,354 L 481,355 L 481,356 L 483,358 L 483,359 L 484,360 L 484,361 L 486,363 L 486,364 L 487,365 L 487,366 L 489,368 L 489,369 L 490,370 L 490,371 L 491,372 L 491,373 L 493,375 L 493,376 L 494,377 L 494,378 L 496,380 L 496,381 L 497,382 L 497,383 L 499,385 L 499,386 L 500,387 L 500,388 L 501,389 L 501,390 L 503,392 L 503,393 L 504,394 L 504,395 L 506,397 L 506,398 L 507,399 L 507,400 L 509,402 L 509,403 L 510,404 L 510,405 L 511,406 L 511,407 L 513,409 L 513,410 L 514,411 L 514,412 L 516,414 L 516,415 L 517,416 L 517,417 L 518,418 L 518,419 L 520,421 L 520,422 L 521,423 L 521,424 L 523,426 L 523,427 L 524,428 L 524,429 L 526,431 L 526,432 L 527,433 L 527,434 L 529,436 L 529,437 L 530,438 L 530,439 L 531,440 L 531,441 L 533,443 L 533,444 L 534,445 L 534,446 L 536,448 L 536,449 L 537,450 L 537,451 L 538,452 L 538,453 L 540,455 L 540,456 L 541,457 L 541,458 L 543,460 L 543,461 L 544,462 L 544,463 L 545,464 L 545,465 L 547,467 L 547,468 L 548,469 L 548,470 L 549,471 L 549,472 L 551,474 L 551,475 L 552,476 L 552,477 L 554,479 L 554,480 L 555,481 L 555,482 L 556,483 L 556,484 L 663,484 L 557,484 L 556,483 L 556,482 L 554,480 L 554,479 L 553,478 L 553,477 L 552,476 L 552,475 L 550,473 L 550,472 L 549,471 L 549,470 L 547,468 L 547,467 L 546,466 L 546,465 L 545,464 L 545,463 L 543,461 L 543,460 L 542,459 L 542,458 L 541,457 L 541,456 L 539,454 L 539,453 L 538,452 L 538,451 L 537,450 L 537,449 L 535,447 L 535,446 L 534,445 L 534,444 L 533,443 L 533,442 L 531,440 L 531,439 L 529,437 L 529,436 L 528,435 L 528,434 L 529,433 L 528,434 L 527,433 L 527,432 L 525,430 L 525,429 L 524,428 L 524,427 L 522,425 L 522,424 L 521,423 L 521,422 L 520,421 L 520,420 L 518,418 L 518,417 L 517,416 L 517,415 L 515,413 L 515,412 L 514,411 L 514,410 L 512,408 L 512,407 L 511,406 L 511,405 L 509,403 L 509,402 L 508,401 L 508,400 L 507,399 L 507,398 L 505,396 L 505,395 L 504,394 L 504,393 L 502,391 L 502,390 L 501,389 L 501,388 L 500,387 L 500,386 L 498,384 L 498,383 L 499,382 L 498,383 L 497,382 L 497,381 L 495,379 L 495,378 L 494,377 L 494,376 L 492,374 L 492,373 L 491,372 L 491,371 L 490,370 L 490,369 L 488,367 L 488,366 L 489,365 L 489,364 L 488,363 L 487,364 L 485,362 L 485,361 L 484,360 L 484,359 L 482,357 L 482,356 L 481,355 L 481,354 L 480,353 L 480,352 L 478,350 L 478,349 L 479,348 L 481,350 L 482,349 L 483,349 L 482,349 L 481,350 L 479,348 L 478,349 L 477,348 L 477,347 L 475,345 L 475,344 L 476,343 L 475,344 L 474,343 L 474,342 L 472,340 L 472,339 L 471,338 L 471,337 L 469,335 L 469,334 L 468,333 L 468,332 L 466,330 L 466,329 L 465,328 L 465,327 L 466,326 L 465,327 L 463,325 L 463,324 L 462,323 L 462,322 L 461,321 L 461,320 L 459,318 L 458,318 L 457,319 L 457,320 L 455,322 L 454,321 L 454,320 L 454,321 L 452,323 L 454,321 L 455,322 L 455,323 L 454,324 L 454,325 L 452,327 L 450,325 L 450,324 L 449,323 L 452,320 L 451,319 L 451,318 L 450,318 L 449,319 L 448,319 L 446,317 L 446,316 L 445,317 L 444,316 L 444,315 L 445,314 L 446,314 L 445,314 L 442,311 L 443,310 L 443,309 L 443,310 L 442,311 L 440,309 L 443,306 L 443,305 L 442,306 L 442,307 L 441,308 L 439,308 L 437,306 L 438,305 L 437,304 L 437,305 L 436,306 L 435,305 L 435,303 L 436,302 L 437,302 L 436,302 L 435,301 L 436,302 L 435,303 L 434,303 L 432,301 L 433,300 L 433,298 L 434,297 L 433,298 L 432,298 L 431,299 L 429,299 L 428,298 L 430,296 L 430,295 L 431,294 L 432,295 L 432,294 L 431,293 L 431,292 L 429,292 L 430,292 L 431,293 L 431,294 L 430,295 L 429,294 L 430,295 L 428,297 L 426,295 L 427,294 L 427,292 L 426,292 L 425,291 L 425,290 L 426,289 L 427,290 L 425,288 L 426,287 L 425,288 L 424,287 L 425,288 L 425,289 L 424,290 L 423,290 L 422,289 L 422,288 L 421,287 L 422,286 L 422,285 L 421,285 L 420,284 L 421,283 L 422,283 L 422,282 L 421,283 L 418,283 L 417,284 L 416,284 L 415,283 L 416,282 L 415,282 L 413,280 L 413,279 L 413,280 L 412,281 L 410,279 L 413,276 L 411,276 L 409,274 L 409,275 L 410,275 L 411,276 L 411,277 L 410,278 L 409,277 L 408,277 L 407,276 L 407,274 L 406,274 L 405,273 L 406,272 L 410,272 L 408,270 L 409,269 L 411,269 L 410,269 L 409,268 L 408,269 L 407,268 L 407,266 L 405,264 L 404,264 L 403,263 L 404,262 L 404,261 L 403,262 L 402,262 L 401,261 L 402,260 L 400,258 L 399,259 L 399,260 L 400,260 L 402,262 L 402,263 L 401,264 L 400,263 L 399,264 L 398,263 L 397,263 L 394,260 L 396,258 L 397,259 L 396,258 L 398,256 L 397,257 L 396,256 L 397,257 L 396,258 L 395,258 L 394,259 L 393,259 L 392,258 L 393,257 L 392,257 L 392,259 L 391,260 L 390,260 L 389,259 L 387,259 L 386,258 L 387,257 L 388,257 L 388,255 L 389,254 L 390,255 L 392,255 L 390,255 L 389,254 L 389,253 L 388,252 L 388,251 L 390,249 L 390,248 L 391,247 L 391,246 L 392,245 L 392,244 L 394,242 L 394,241 L 395,240 L 395,239 L 397,237 L 397,236 L 398,235 L 398,234 L 399,233 L 399,232 L 401,230 L 401,229 L 402,228 L 402,227 L 404,225 L 404,224 L 406,222 L 406,221 L 412,215 L 413,215 L 416,212 L 417,212 L 419,210 L 420,210 L 421,209 L 422,209 L 423,208 L 424,208 L 425,207 L 426,207 L 427,206 L 429,206 L 430,205 L 432,205 L 433,204 L 436,204 L 437,203 L 442,203 L 443,202 L 483,202 L 484,203 L 488,203 L 489,204 L 492,204 L 493,205 L 494,205 L 495,206 L 496,206 L 497,207 L 498,207 L 499,208 L 500,208 L 502,210 L 503,210 L 506,213 L 507,213 L 511,217 L 511,218 L 514,221 L 514,222 L 516,224 L 516,225 L 517,226 L 517,227 L 518,228 L 518,229 L 520,231 L 520,232 L 521,233 L 521,234 L 522,235 L 522,236 L 524,238 L 524,239 L 525,240 L 525,241 L 526,242 L 526,243 L 528,245 L 528,246 L 529,247 L 529,248 L 531,250 L 531,251 L 532,252 L 532,253 L 533,254 L 533,255 L 535,257 L 535,258 L 536,259 L 536,260 L 537,261 L 537,262 L 539,264 L 539,265 L 540,266 L 540,267 L 542,269 L 542,270 L 543,271 L 543,272 L 544,273 L 544,274 L 546,276 L 546,277 L 547,278 L 547,279 L 548,280 L 548,281 L 550,283 L 550,284 L 551,285 L 551,286 L 552,287 L 552,288 L 554,290 L 554,291 L 555,292 L 555,293 L 557,295 L 557,296 L 558,297 L 558,298 L 559,299 L 559,300 L 561,302 L 561,303 L 562,304 L 562,305 L 564,307 L 564,308 L 565,309 L 565,310 L 566,311 L 566,312 L 568,314 L 568,315 L 569,316 L 569,317 L 570,318 L 570,319 L 572,321 L 572,322 L 573,323 L 573,324 L 574,325 L 574,326 L 576,328 L 576,329 L 577,330 L 577,331 L 579,333 L 579,334 L 580,335 L 580,336 L 581,337 L 581,338 L 583,340 L 583,341 L 584,342 L 584,343 L 585,344 L 585,345 L 587,347 L 587,348 L 588,349 L 588,350 L 589,351 L 589,352 L 591,354 L 591,355 L 592,356 L 592,357 L 594,359 L 594,360 L 595,361 L 595,362 L 596,363 L 596,364 L 598,366 L 598,367 L 599,368 L 599,369 L 600,370 L 600,371 L 602,373 L 602,374 L 603,375 L 603,376 L 604,377 L 603,376 L 603,375 L 602,374 L 602,373 L 600,371 L 600,370 L 599,369 L 599,368 L 598,367 L 598,366 L 596,364 L 596,363 L 595,362 L 595,361 L 594,360 L 594,359 L 592,357 L 592,356 L 591,355 L 591,354 L 589,352 L 589,351 L 588,350 L 588,349 L 587,348 L 587,347 L 585,345 L 585,344 L 584,343 L 584,342 L 583,341 L 583,340 L 581,338 L 581,337 L 580,336 L 580,335 L 579,334 L 579,333 L 577,331 L 577,330 L 576,329 L 576,328 L 574,326 L 574,325 L 573,324 L 573,323 L 572,322 L 572,321 L 570,319 L 570,318 L 569,317 L 569,316 L 568,315 L 568,314 L 566,312 L 566,311 L 565,310 L 565,309 L 564,308 L 564,307 L 562,305 L 562,304 L 561,303 L 561,302 L 559,300 L 559,299 L 558,298 L 558,297 L 557,296 L 557,295 L 555,293 L 555,292 L 554,291 L 554,290 L 552,288 L 552,287 L 551,286 L 551,285 L 550,284 L 550,283 L 548,281 L 548,280 L 547,279 L 547,278 L 546,277 L 546,276 L 544,274 L 544,273 L 543,272 L 543,271 L 542,270 L 542,269 L 540,267 L 540,266 L 539,265 L 539,264 L 537,262 L 537,261 L 536,260 L 536,259 L 535,258 L 535,257 L 533,255 L 533,254 L 532,253 L 532,252 L 531,251 L 531,250 L 529,248 L 529,247 L 528,246 L 528,245 L 527,244 L 527,243 L 525,241 L 525,240 L 524,239 L 524,238 L 522,236 L 522,235 L 521,234 L 521,233 L 520,232 L 520,231 L 518,229 L 518,228 L 517,227 L 517,226 L 516,225 L 516,224 L 514,222 L 514,221 L 512,219 L 512,218 L 506,212 L 505,212 L 502,209 L 501,209 L 500,208 L 499,208 L 498,207 L 497,207 L 496,206 L 495,206 L 494,205 L 493,205 L 492,204 L 489,204 L 488,203 L 484,203 L 483,202 Z" fill="black" stroke="none" /></svg>